<?xml version="1.0" encoding="UTF-8" standalone="no"?>
<!DOCTYPE svg PUBLIC "-//W3C//DTD SVG 1.1//EN"
 "http://www.w3.org/Graphics/SVG/1.1/DTD/svg11.dtd">
<!-- Generated by graphviz version 2.44.0 (0)
 -->
<!-- Title: GroceryMate &#160;AWS Architecture Pages: 1 -->
<svg width="1154pt" height="1706pt"
 viewBox="0.00 0.00 1153.70 1706.20" xmlns="http://www.w3.org/2000/svg" xmlns:xlink="http://www.w3.org/1999/xlink">
<g id="graph0" class="graph" transform="scale(1 1) rotate(0) translate(57.6 1648.6)">
<title>GroceryMate &#160;AWS Architecture</title>
<text text-anchor="middle" x="519.25" y="-1569.4" font-family="Arial" font-size="22.00" fill="#2d3436">GroceryMate &#160;AWS Architecture</text>
<g id="clust1" class="cluster">
<title>cluster_Amazon Cloud (AWS) &#160;eu&#45;north&#45;1</title>
<path fill="#f2f5f7" stroke="#aeb6be" stroke-width="2" d="M134.5,-8C134.5,-8 1018.5,-8 1018.5,-8 1024.5,-8 1030.5,-14 1030.5,-20 1030.5,-20 1030.5,-1539 1030.5,-1539 1030.5,-1545 1024.5,-1551 1018.5,-1551 1018.5,-1551 134.5,-1551 134.5,-1551 128.5,-1551 122.5,-1545 122.5,-1539 122.5,-1539 122.5,-20 122.5,-20 122.5,-14 128.5,-8 134.5,-8"/>
<text text-anchor="middle" x="223.5" y="-1537.4" font-family="Sans-Serif" font-size="12.00" fill="#2d3436">Amazon Cloud (AWS) &#160;eu&#45;north&#45;1</text>
</g>
<g id="clust2" class="cluster">
<title>cluster_Virtual Private Cloud (VPC) &#160;10.0.0.0/16</title>
<path fill="#e6f2fa" stroke="#aeb6be" stroke-width="2" d="M333.5,-253C333.5,-253 833.5,-253 833.5,-253 839.5,-253 845.5,-259 845.5,-265 845.5,-265 845.5,-1013 845.5,-1013 845.5,-1019 839.5,-1025 833.5,-1025 833.5,-1025 333.5,-1025 333.5,-1025 327.5,-1025 321.5,-1019 321.5,-1013 321.5,-1013 321.5,-265 321.5,-265 321.5,-259 327.5,-253 333.5,-253"/>
<text text-anchor="middle" x="438" y="-1011.4" font-family="Sans-Serif" font-size="12.00" fill="#2d3436">Virtual Private Cloud (VPC) &#160;10.0.0.0/16</text>
</g>
<g id="clust3" class="cluster">
<title>cluster_Public Subnets (AZ a + b)</title>
<path fill="#eaf5e9" stroke="#aeb6be" stroke-width="2" d="M341.5,-267.5C341.5,-267.5 656.5,-267.5 656.5,-267.5 662.5,-267.5 668.5,-273.5 668.5,-279.5 668.5,-279.5 668.5,-984 668.5,-984 668.5,-990 662.5,-996 656.5,-996 656.5,-996 341.5,-996 341.5,-996 335.5,-996 329.5,-990 329.5,-984 329.5,-984 329.5,-279.5 329.5,-279.5 329.5,-273.5 335.5,-267.5 341.5,-267.5"/>
<text text-anchor="middle" x="407" y="-982.4" font-family="Sans-Serif" font-size="12.00" fill="#2d3436">Public Subnets (AZ a + b)</text>
</g>
<g id="clust4" class="cluster">
<title>cluster_Auto Scaling Group</title>
<path fill="#fff3e0" stroke="#aeb6be" stroke-width="2" stroke-dasharray="5,2" d="M381.5,-275.5C381.5,-275.5 648.5,-275.5 648.5,-275.5 654.5,-275.5 660.5,-281.5 660.5,-287.5 660.5,-287.5 660.5,-718 660.5,-718 660.5,-724 654.5,-730 648.5,-730 648.5,-730 381.5,-730 381.5,-730 375.5,-730 369.5,-724 369.5,-718 369.5,-718 369.5,-287.5 369.5,-287.5 369.5,-281.5 375.5,-275.5 381.5,-275.5"/>
<text text-anchor="middle" x="432.5" y="-716.4" font-family="Sans-Serif" font-size="12.00" fill="#2d3436">Auto Scaling Group</text>
</g>
<g id="clust5" class="cluster">
<title>cluster_Private Subnets (AZ a + b)</title>
<path fill="#fce8f3" stroke="#aeb6be" stroke-width="2" d="M688.5,-261C688.5,-261 825.5,-261 825.5,-261 831.5,-261 837.5,-267 837.5,-273 837.5,-273 837.5,-452 837.5,-452 837.5,-458 831.5,-464 825.5,-464 825.5,-464 688.5,-464 688.5,-464 682.5,-464 676.5,-458 676.5,-452 676.5,-452 676.5,-273 676.5,-273 676.5,-267 682.5,-261 688.5,-261"/>
<text text-anchor="middle" x="757" y="-450.4" font-family="Sans-Serif" font-size="12.00" fill="#2d3436">Private Subnets (AZ a + b)</text>
</g>
<!-- c2a440dba896406594b1e0899c8dfc68 -->
<g id="node1" class="node">
<title>c2a440dba896406594b1e0899c8dfc68</title>
<image xlink:href="/home/ec2-user/.local/lib/python3.11/site-packages/resources/aws/general/internet-alt1.png" width="101px" height="101px" preserveAspectRatio="xMinYMin meet" x="0" y="-1489.5"/>
<text text-anchor="middle" x="50.5" y="-1374.3" font-family="Arial" font-size="14.00" fill="#2d3436">Internet</text>
</g>
<!-- a7fb7691e0d445b4b4cd0eb2781bb641 -->
<g id="node2" class="node">
<title>a7fb7691e0d445b4b4cd0eb2781bb641</title>
<image xlink:href="/home/ec2-user/.local/lib/python3.11/site-packages/resources/aws/network/route-53.png" width="101px" height="101px" preserveAspectRatio="xMinYMin meet" x="0" y="-1223.5"/>
<text text-anchor="middle" x="50.5" y="-1108.8" font-family="Arial" font-size="14.00" fill="#2d3436">Route 53</text>
<text text-anchor="middle" x="50.5" y="-1093.8" font-family="Arial" font-size="14.00" fill="#2d3436">(optional DNS)</text>
</g>
<!-- c2a440dba896406594b1e0899c8dfc68&#45;&gt;a7fb7691e0d445b4b4cd0eb2781bb641 -->
<g id="edge3" class="edge">
<title>c2a440dba896406594b1e0899c8dfc68&#45;&gt;a7fb7691e0d445b4b4cd0eb2781bb641</title>
<path fill="none" stroke="darkgreen" stroke-width="2" d="M50.5,-1370.36C50.5,-1338.65 50.5,-1300.39 50.5,-1266.1"/>
<polygon fill="darkgreen" stroke="darkgreen" stroke-width="2" points="54,-1266.07 50.5,-1256.07 47,-1266.07 54,-1266.07"/>
<text text-anchor="middle" x="89" y="-1302.6" font-family="Sans-Serif" font-size="13.00" fill="#2d3436">HTTP/HTTPS</text>
</g>
<!-- 0a55097ac2ac45a59002a695df4977dd -->
<g id="node8" class="node">
<title>0a55097ac2ac45a59002a695df4977dd</title>
<image xlink:href="/home/ec2-user/.local/lib/python3.11/site-packages/resources/aws/network/elb-application-load-balancer.png" width="101px" height="101px" preserveAspectRatio="xMinYMin meet" x="359" y="-934.5"/>
<text text-anchor="middle" x="409.5" y="-819.8" font-family="Arial" font-size="14.00" fill="#2d3436">Application</text>
<text text-anchor="middle" x="409.5" y="-804.8" font-family="Arial" font-size="14.00" fill="#2d3436">Load Balancer</text>
</g>
<!-- c2a440dba896406594b1e0899c8dfc68&#45;&gt;0a55097ac2ac45a59002a695df4977dd -->
<g id="edge4" class="edge">
<title>c2a440dba896406594b1e0899c8dfc68&#45;&gt;0a55097ac2ac45a59002a695df4977dd</title>
<path fill="none" stroke="darkgreen" stroke-width="2" d="M93.76,-1370.19C97.29,-1365.31 100.89,-1360.54 104.5,-1356 120.94,-1335.33 129.37,-1333.91 145.5,-1313 230.06,-1203.4 311.14,-1065.38 360.62,-976.19"/>
<polygon fill="darkgreen" stroke="darkgreen" stroke-width="2" points="363.83,-977.62 365.61,-967.18 357.7,-974.23 363.83,-977.62"/>
</g>
<!-- a7fb7691e0d445b4b4cd0eb2781bb641&#45;&gt;0a55097ac2ac45a59002a695df4977dd -->
<g id="edge5" class="edge">
<title>a7fb7691e0d445b4b4cd0eb2781bb641&#45;&gt;0a55097ac2ac45a59002a695df4977dd</title>
<path fill="none" stroke="#7b8894" d="M101.17,-1131.49C166.96,-1078.89 281.55,-987.29 350.97,-931.79"/>
<polygon fill="#7b8894" stroke="#7b8894" points="353.17,-934.51 358.79,-925.54 348.8,-929.05 353.17,-934.51"/>
</g>
<!-- d89b80ece5fc4788b8b79efa988faa65 -->
<g id="node3" class="node">
<title>d89b80ece5fc4788b8b79efa988faa65</title>
<image xlink:href="/home/ec2-user/.local/lib/python3.11/site-packages/resources/aws/compute/ec2.png" width="101px" height="101px" preserveAspectRatio="xMinYMin meet" x="378" y="-668.5"/>
<text text-anchor="middle" x="428.5" y="-553.8" font-family="Arial" font-size="14.00" fill="#2d3436">EC2 Instance</text>
<text text-anchor="middle" x="428.5" y="-538.8" font-family="Arial" font-size="14.00" fill="#2d3436">AZ&#45;a</text>
</g>
<!-- ac9ebc7ccdbc4845a3f0901e27b19ae6 -->
<g id="node4" class="node">
<title>ac9ebc7ccdbc4845a3f0901e27b19ae6</title>
<image xlink:href="/home/ec2-user/.local/lib/python3.11/site-packages/resources/onprem/container/docker.png" width="101px" height="101px" preserveAspectRatio="xMinYMin meet" x="378" y="-402.5"/>
<text text-anchor="middle" x="428.5" y="-287.3" font-family="Arial" font-size="14.00" fill="#2d3436">docker</text>
</g>
<!-- d89b80ece5fc4788b8b79efa988faa65&#45;&gt;ac9ebc7ccdbc4845a3f0901e27b19ae6 -->
<!-- a4b3583b447c427d8e873d8e9187daf9 -->
<g id="node9" class="node">
<title>a4b3583b447c427d8e873d8e9187daf9</title>
<image xlink:href="/home/ec2-user/.local/lib/python3.11/site-packages/resources/aws/database/rds.png" width="101px" height="101px" preserveAspectRatio="xMinYMin meet" x="724" y="-402.5"/>
<text text-anchor="middle" x="774.5" y="-287.8" font-family="Arial" font-size="14.00" fill="#2d3436">RDS PostgreSQL</text>
<text text-anchor="middle" x="774.5" y="-272.8" font-family="Arial" font-size="14.00" fill="#2d3436">db.t4g.micro</text>
</g>
<!-- d89b80ece5fc4788b8b79efa988faa65&#45;&gt;a4b3583b447c427d8e873d8e9187daf9 -->
<g id="edge8" class="edge">
<title>d89b80ece5fc4788b8b79efa988faa65&#45;&gt;a4b3583b447c427d8e873d8e9187daf9</title>
<path fill="none" stroke="crimson" d="M479.11,-565.37C490.62,-554.77 503.11,-544.08 515.5,-535 557.38,-504.29 569.04,-496.66 617.5,-478 643.46,-468 654.67,-478.34 678.5,-464 692.42,-455.62 705.36,-444.53 716.95,-432.6"/>
<polygon fill="crimson" stroke="crimson" points="719.71,-434.77 723.99,-425.08 714.6,-429.99 719.71,-434.77"/>
<text text-anchor="middle" x="649" y="-481.6" font-family="Sans-Serif" font-size="13.00" fill="#2d3436">SQL :5432</text>
</g>
<!-- bb431a06df194d37aabd08a9f94817b2 -->
<g id="node10" class="node">
<title>bb431a06df194d37aabd08a9f94817b2</title>
<image xlink:href="/home/ec2-user/.local/lib/python3.11/site-packages/resources/aws/storage/simple-storage-service-s3.png" width="101px" height="101px" preserveAspectRatio="xMinYMin meet" x="205" y="-402.5"/>
<text text-anchor="middle" x="255.5" y="-287.8" font-family="Arial" font-size="14.00" fill="#2d3436">S3 Bucket</text>
<text text-anchor="middle" x="255.5" y="-272.8" font-family="Arial" font-size="14.00" fill="#2d3436">Assets + Logs</text>
</g>
<!-- d89b80ece5fc4788b8b79efa988faa65&#45;&gt;bb431a06df194d37aabd08a9f94817b2 -->
<g id="edge13" class="edge">
<title>d89b80ece5fc4788b8b79efa988faa65&#45;&gt;bb431a06df194d37aabd08a9f94817b2</title>
<path fill="none" stroke="#7b8894" stroke-dasharray="5,2" d="M378,-539.93C357.21,-508.22 333.06,-471.35 311.72,-438.79"/>
<polygon fill="#7b8894" stroke="#7b8894" points="314.48,-436.61 306.07,-430.17 308.62,-440.45 314.48,-436.61"/>
</g>
<!-- 38a67b02df834908be38ea0510c2355e -->
<g id="node13" class="node">
<title>38a67b02df834908be38ea0510c2355e</title>
<image xlink:href="/home/ec2-user/.local/lib/python3.11/site-packages/resources/aws/management/cloudwatch.png" width="101px" height="101px" preserveAspectRatio="xMinYMin meet" x="724" y="-149.5"/>
<text text-anchor="middle" x="774.5" y="-34.8" font-family="Arial" font-size="14.00" fill="#2d3436">CloudWatch</text>
<text text-anchor="middle" x="774.5" y="-19.8" font-family="Arial" font-size="14.00" fill="#2d3436">Metrics + Alarms</text>
</g>
<!-- d89b80ece5fc4788b8b79efa988faa65&#45;&gt;38a67b02df834908be38ea0510c2355e -->
<g id="edge15" class="edge">
<title>d89b80ece5fc4788b8b79efa988faa65&#45;&gt;38a67b02df834908be38ea0510c2355e</title>
<path fill="none" stroke="#7b8894" stroke-dasharray="1,5" d="M377.79,-603.67C315.93,-584.39 214.09,-542.13 169.5,-464 123.02,-382.55 111.89,-326.99 169.5,-253 236.62,-166.79 573.55,-121.45 713.45,-106.09"/>
<polygon fill="#7b8894" stroke="#7b8894" points="714.01,-109.55 723.58,-105 713.26,-102.59 714.01,-109.55"/>
</g>
<!-- 53bf7cc0285646ad8c515423bc9643f7 -->
<g id="node5" class="node">
<title>53bf7cc0285646ad8c515423bc9643f7</title>
<image xlink:href="/home/ec2-user/.local/lib/python3.11/site-packages/resources/aws/compute/ec2.png" width="101px" height="101px" preserveAspectRatio="xMinYMin meet" x="551" y="-668.5"/>
<text text-anchor="middle" x="601.5" y="-553.8" font-family="Arial" font-size="14.00" fill="#2d3436">EC2 Instance</text>
<text text-anchor="middle" x="601.5" y="-538.8" font-family="Arial" font-size="14.00" fill="#2d3436">AZ&#45;b</text>
</g>
<!-- 46c1bf0c684c4f008a7c2b1ee0cb7ee9 -->
<g id="node6" class="node">
<title>46c1bf0c684c4f008a7c2b1ee0cb7ee9</title>
<image xlink:href="/home/ec2-user/.local/lib/python3.11/site-packages/resources/onprem/container/docker.png" width="101px" height="101px" preserveAspectRatio="xMinYMin meet" x="551" y="-402.5"/>
<text text-anchor="middle" x="601.5" y="-287.3" font-family="Arial" font-size="14.00" fill="#2d3436">docker</text>
</g>
<!-- 53bf7cc0285646ad8c515423bc9643f7&#45;&gt;46c1bf0c684c4f008a7c2b1ee0cb7ee9 -->
<!-- 53bf7cc0285646ad8c515423bc9643f7&#45;&gt;a4b3583b447c427d8e873d8e9187daf9 -->
<g id="edge9" class="edge">
<title>53bf7cc0285646ad8c515423bc9643f7&#45;&gt;a4b3583b447c427d8e873d8e9187daf9</title>
<path fill="none" stroke="crimson" d="M652.29,-540.29C653.69,-538.5 655.09,-536.73 656.5,-535 673.34,-514.26 682.61,-513.48 698.5,-492 709.47,-477.17 719.91,-460.57 729.35,-444.14"/>
<polygon fill="crimson" stroke="crimson" points="732.61,-445.47 734.48,-435.04 726.52,-442.03 732.61,-445.47"/>
<text text-anchor="middle" x="737" y="-481.6" font-family="Sans-Serif" font-size="13.00" fill="#2d3436">SQL :5432</text>
</g>
<!-- 53bf7cc0285646ad8c515423bc9643f7&#45;&gt;bb431a06df194d37aabd08a9f94817b2 -->
<g id="edge14" class="edge">
<title>53bf7cc0285646ad8c515423bc9643f7&#45;&gt;bb431a06df194d37aabd08a9f94817b2</title>
<path fill="none" stroke="#7b8894" stroke-dasharray="5,2" d="M550.81,-563.1C539.76,-553 527.71,-543.09 515.5,-535 449.28,-491.14 415.53,-511 351.5,-464 337.85,-453.98 324.82,-441.68 313,-428.97"/>
<polygon fill="#7b8894" stroke="#7b8894" points="315.5,-426.51 306.19,-421.44 310.31,-431.21 315.5,-426.51"/>
</g>
<!-- 68e5a803dc274401a3f98cea94fe5209 -->
<g id="node7" class="node">
<title>68e5a803dc274401a3f98cea94fe5209</title>
<image xlink:href="/home/ec2-user/.local/lib/python3.11/site-packages/resources/aws/network/internet-gateway.png" width="101px" height="101px" preserveAspectRatio="xMinYMin meet" x="545" y="-934.5"/>
<text text-anchor="middle" x="595.5" y="-819.8" font-family="Arial" font-size="14.00" fill="#2d3436">Internet</text>
<text text-anchor="middle" x="595.5" y="-804.8" font-family="Arial" font-size="14.00" fill="#2d3436">Gateway</text>
</g>
<!-- 0a55097ac2ac45a59002a695df4977dd&#45;&gt;d89b80ece5fc4788b8b79efa988faa65 -->
<g id="edge6" class="edge">
<title>0a55097ac2ac45a59002a695df4977dd&#45;&gt;d89b80ece5fc4788b8b79efa988faa65</title>
<path fill="none" stroke="darkgreen" d="M395.87,-800.95C394.41,-782.21 394.18,-762.4 396.5,-744 397.85,-733.28 399.83,-722.16 402.15,-711.18"/>
<polygon fill="darkgreen" stroke="darkgreen" points="405.63,-711.66 404.37,-701.14 398.79,-710.15 405.63,-711.66"/>
<text text-anchor="middle" x="440" y="-747.6" font-family="Sans-Serif" font-size="13.00" fill="#2d3436">forward :5000</text>
</g>
<!-- 0a55097ac2ac45a59002a695df4977dd&#45;&gt;53bf7cc0285646ad8c515423bc9643f7 -->
<g id="edge7" class="edge">
<title>0a55097ac2ac45a59002a695df4977dd&#45;&gt;53bf7cc0285646ad8c515423bc9643f7</title>
<path fill="none" stroke="darkgreen" d="M460.2,-813.29C486.23,-777.5 518.02,-733.78 544.85,-696.89"/>
<polygon fill="darkgreen" stroke="darkgreen" points="547.8,-698.79 550.85,-688.64 542.14,-694.67 547.8,-698.79"/>
<text text-anchor="middle" x="549" y="-747.6" font-family="Sans-Serif" font-size="13.00" fill="#2d3436">forward :5000</text>
</g>
<!-- a4b3583b447c427d8e873d8e9187daf9&#45;&gt;38a67b02df834908be38ea0510c2355e -->
<g id="edge16" class="edge">
<title>a4b3583b447c427d8e873d8e9187daf9&#45;&gt;38a67b02df834908be38ea0510c2355e</title>
<path fill="none" stroke="#7b8894" stroke-dasharray="1,5" d="M774.5,-268.81C774.5,-244.44 774.5,-217.57 774.5,-192.58"/>
<polygon fill="#7b8894" stroke="#7b8894" points="778,-192.37 774.5,-182.37 771,-192.37 778,-192.37"/>
</g>
<!-- 343ed20313d749f99740a92043c8a236 -->
<g id="node11" class="node">
<title>343ed20313d749f99740a92043c8a236</title>
<image xlink:href="/home/ec2-user/.local/lib/python3.11/site-packages/resources/aws/compute/lambda.png" width="101px" height="101px" preserveAspectRatio="xMinYMin meet" x="596" y="-1223.5"/>
<text text-anchor="middle" x="646.5" y="-1108.8" font-family="Arial" font-size="14.00" fill="#2d3436">Lambda</text>
<text text-anchor="middle" x="646.5" y="-1093.8" font-family="Arial" font-size="14.00" fill="#2d3436">Health Check</text>
</g>
<!-- 343ed20313d749f99740a92043c8a236&#45;&gt;0a55097ac2ac45a59002a695df4977dd -->
<g id="edge11" class="edge">
<title>343ed20313d749f99740a92043c8a236&#45;&gt;0a55097ac2ac45a59002a695df4977dd</title>
<path fill="none" stroke="#7b8894" stroke-dasharray="5,2" d="M595.98,-1121.1C569.34,-1093.46 536.66,-1058.22 509.5,-1025 494.78,-1006.99 479.76,-986.98 465.99,-967.86"/>
<polygon fill="#7b8894" stroke="#7b8894" points="468.83,-965.82 460.17,-959.72 463.14,-969.89 468.83,-965.82"/>
<text text-anchor="middle" x="595.5" y="-1036.6" font-family="Sans-Serif" font-size="13.00" fill="#2d3436">describe&#45;target&#45;health</text>
</g>
<!-- 343ed20313d749f99740a92043c8a236&#45;&gt;38a67b02df834908be38ea0510c2355e -->
<g id="edge12" class="edge">
<title>343ed20313d749f99740a92043c8a236&#45;&gt;38a67b02df834908be38ea0510c2355e</title>
<path fill="none" stroke="#7b8894" stroke-dasharray="5,2" d="M697.02,-1148.68C777.42,-1107.69 925.5,-1014.6 925.5,-885 925.5,-885 925.5,-885 925.5,-351 925.5,-275.45 874.65,-203.07 831.97,-155.61"/>
<polygon fill="#7b8894" stroke="#7b8894" points="834.53,-153.22 825.2,-148.21 829.37,-157.95 834.53,-153.22"/>
<text text-anchor="middle" x="974" y="-614.6" font-family="Sans-Serif" font-size="13.00" fill="#2d3436">put&#45;metric&#45;data</text>
</g>
<!-- 13e399b3d8d3422b9235c5832aa19662 -->
<g id="node12" class="node">
<title>13e399b3d8d3422b9235c5832aa19662</title>
<image xlink:href="/home/ec2-user/.local/lib/python3.11/site-packages/resources/aws/integration/eventbridge.png" width="101px" height="101px" preserveAspectRatio="xMinYMin meet" x="596" y="-1489.5"/>
<text text-anchor="middle" x="646.5" y="-1374.8" font-family="Arial" font-size="14.00" fill="#2d3436">EventBridge</text>
<text text-anchor="middle" x="646.5" y="-1359.8" font-family="Arial" font-size="14.00" fill="#2d3436">(5&#45;min cron)</text>
</g>
<!-- 13e399b3d8d3422b9235c5832aa19662&#45;&gt;343ed20313d749f99740a92043c8a236 -->
<g id="edge10" class="edge">
<title>13e399b3d8d3422b9235c5832aa19662&#45;&gt;343ed20313d749f99740a92043c8a236</title>
<path fill="none" stroke="#7b8894" d="M646.5,-1355.92C646.5,-1327.48 646.5,-1295.42 646.5,-1266.23"/>
<polygon fill="#7b8894" stroke="#7b8894" points="650,-1266.03 646.5,-1256.03 643,-1266.03 650,-1266.03"/>
<text text-anchor="middle" x="668" y="-1302.6" font-family="Sans-Serif" font-size="13.00" fill="#2d3436">trigger</text>
</g>
<!-- b87e38766d3b4f409fe520ab16e81a8b -->
<g id="node14" class="node">
<title>b87e38766d3b4f409fe520ab16e81a8b</title>
<image xlink:href="/home/ec2-user/.local/lib/python3.11/site-packages/resources/aws/security/identity-and-access-management-iam.png" width="101px" height="101px" preserveAspectRatio="xMinYMin meet" x="377" y="-1489.5"/>
<text text-anchor="middle" x="427.5" y="-1374.8" font-family="Arial" font-size="14.00" fill="#2d3436">IAM Roles</text>
<text text-anchor="middle" x="427.5" y="-1359.8" font-family="Arial" font-size="14.00" fill="#2d3436">+ Policies</text>
</g>
</g>
</svg>
